<?xml version="1.0" encoding="UTF-8" standalone="no"?>
<!-- Created with Inkscape (http://www.inkscape.org/) -->

<svg
   xmlns:dc="http://purl.org/dc/elements/1.1/"
   xmlns:cc="http://creativecommons.org/ns#"
   xmlns:rdf="http://www.w3.org/1999/02/22-rdf-syntax-ns#"
   xmlns:svg="http://www.w3.org/2000/svg"
   xmlns="http://www.w3.org/2000/svg"
   xmlns:sodipodi="http://sodipodi.sourceforge.net/DTD/sodipodi-0.dtd"
   xmlns:inkscape="http://www.inkscape.org/namespaces/inkscape"
   id="svg3336"
   version="1.1"
   inkscape:version="0.92.3 (2405546, 2018-03-11)"
   xml:space="preserve"
   width="988.55078"
   height="97.117188"
   viewBox="0 0 988.55076 97.117184"
   sodipodi:docname="openEHR logo clinicalPROCESS.svg"><title
     id="title3382">openEHR logo clinicalPROCESS</title><metadata
     id="metadata3342"><rdf:RDF><cc:Work
         rdf:about=""><dc:format>image/svg+xml</dc:format><dc:type
           rdf:resource="http://purl.org/dc/dcmitype/StillImage" /><dc:title>openEHR logo clinicalPROCESS</dc:title></cc:Work></rdf:RDF></metadata><defs
     id="defs3340"><clipPath
       clipPathUnits="userSpaceOnUse"
       id="clipPath3350"><path
         d="M 0,141.732 H 453.543 V 0 H 0 Z"
         id="path3352"
         inkscape:connector-curvature="0" /></clipPath></defs><sodipodi:namedview
     pagecolor="#ffffff"
     bordercolor="#666666"
     borderopacity="1"
     objecttolerance="10"
     gridtolerance="10"
     guidetolerance="10"
     inkscape:pageopacity="0"
     inkscape:pageshadow="2"
     inkscape:window-width="1920"
     inkscape:window-height="1021"
     id="namedview3338"
     showgrid="false"
     inkscape:zoom="1"
     inkscape:cx="166.85725"
     inkscape:cy="64.393417"
     inkscape:window-x="0"
     inkscape:window-y="600"
     inkscape:window-maximized="1"
     inkscape:current-layer="g3344"
     inkscape:pagecheckerboard="true"
     fit-margin-top="0"
     fit-margin-left="0"
     fit-margin-right="0"
     fit-margin-bottom="0" /><g
     id="g3344"
     inkscape:groupmode="layer"
     inkscape:label="openEHR logo clinicalPROCESS"
     transform="matrix(1.25,0,0,-1.25,132.29895,121.09081)"><g
       id="g3358"
       transform="translate(82.2842,58.3389)"
       style="fill:#de7d47;fill-opacity:1" /><g
       id="g3374"
       transform="translate(302.9741,38.4658)" /><g
       transform="matrix(0.8,0,0,-0.8,15.9999,110.7319)"
       style="font-style:normal;font-weight:normal;font-size:40px;line-height:125%;font-family:Sans;letter-spacing:100px;word-spacing:0px;fill:#000000;fill-opacity:1;stroke:none;stroke-width:1px;stroke-linecap:butt;stroke-linejoin:miter;stroke-opacity:1"
       id="flowRoot834" /><g
       aria-label="PROCESS"
       transform="matrix(0.8,0,0,-0.8,43.5999,-52.718212)"
       style="font-style:normal;font-variant:normal;font-weight:600;font-stretch:normal;font-size:124px;line-height:125%;font-family:'Lucida Sans';-inkscape-font-specification:'Lucida Sans Semi-Bold';letter-spacing:0px;word-spacing:0px;fill:#123f6d;fill-opacity:1;stroke:none;stroke-width:1px;stroke-linecap:butt;stroke-linejoin:miter;stroke-opacity:1"
       id="flowRoot898"><path
         d="M 249.20117,-92.11162 V -181.721 h 31.24219 q 13.62305,0 19.13281,2.84571 5.57031,2.78515 8.35547,7.93164 2.8457,5.14648 2.8457,12.95703 0,15.01562 -9.6875,22.88672 -9.62695,7.87109 -25.85351,7.87109 h -7.75 v 35.11719 z m 18.28516,-47.4082 h 3.63281 q 10.65625,0 15.62109,-4.9043 5.02539,-4.96484 5.02539,-11.625 0,-3.75391 -1.57421,-6.78125 -1.57422,-3.08789 -4.9043,-4.84375 -3.26953,-1.75586 -10.53516,-1.75586 h -7.26562 z"
         style="font-size:124px;fill:#123f6d;fill-opacity:1"
         id="path941" /><path
         d="M 325.24805,-92.11162 V -181.721 h 33.54297 q 10.29296,0 15.68164,2.60352 5.38867,2.54297 8.47656,7.81055 3.14844,5.20703 3.14844,11.80664 0,7.87109 -4.54102,14.89453 -4.54102,6.96289 -12.83594,10.65625 l 29.30469,41.83789 h -22.70508 l -22.2207,-36.63086 h -10.29297 v 36.63086 z m 17.55859,-48.92188 h 4.29883 q 11.56445,0 15.92383,-5.02539 4.35937,-5.02539 4.35937,-11.38281 0,-5.50976 -3.57226,-8.71875 -3.57227,-3.26953 -14.53125,-3.26953 h -6.47852 z"
         style="font-size:124px;fill:#123f6d;fill-opacity:1"
         id="path943" /><path
         d="m 450.64062,-89.871386 q -13.98632,0 -24.33984,-5.751953 -10.35351,-5.812501 -15.74219,-16.650391 -5.38867,-10.89844 -5.38867,-24.64258 0,-13.68359 5.38867,-24.58203 5.38868,-10.89844 15.80274,-16.65039 10.41406,-5.8125 24.27929,-5.8125 13.80469,0 24.21875,5.8125 10.41407,5.75195 15.80274,16.65039 5.38867,10.89844 5.38867,24.58203 0,13.74414 -5.38867,24.64258 -5.38867,10.83789 -15.74219,16.650391 -10.29297,5.751953 -24.2793,5.751953 z m 0,-12.351564 q 12.95704,0 19.25391,-10.53515 6.35742,-10.59571 6.35742,-24.21875 0,-13.6836 -6.35742,-24.15821 -6.35742,-10.53515 -19.25391,-10.53515 -12.95703,0 -19.31445,10.53515 -6.35742,10.47461 -6.35742,24.15821 0,13.62304 6.29687,24.21875 6.35743,10.53515 19.375,10.53515 z"
         style="font-size:124px;fill:#123f6d;fill-opacity:1"
         id="path945" /><path
         d="m 585.05469,-95.683886 q -5.87305,2.603516 -10.23242,3.572266 -4.35938,0.96875 -9.92969,1.574218 -5.50977,0.666016 -10.89844,0.666016 -23.49219,0 -35.05664,-13.259764 -11.56445,-13.25977 -11.56445,-33.78516 0,-20.64648 11.5039,-33.8457 11.56446,-13.19922 36.26758,-13.19922 14.5918,0 29.0625,3.45117 v 14.5918 q -6.96289,-2.42188 -11.38281,-3.51172 -4.41992,-1.15039 -8.41602,-1.69531 -3.93554,-0.54492 -7.87109,-0.54492 -15.43945,0 -22.40234,9.92968 -6.9629,9.92969 -6.9629,24.58203 0,15.37891 7.8711,24.88477 7.93164,9.50586 23.55273,9.50586 13.01758,0 26.45899,-6.66016 z"
         style="font-size:124px;fill:#123f6d;fill-opacity:1"
         id="path947" /><path
         d="M 601.3418,-92.11162 V -181.721 h 56.00586 v 12.29102 h -37.35743 v 25.00586 h 30.63672 v 12.35156 h -30.63672 v 27.2461 h 40.20313 v 12.71484 z"
         style="font-size:124px;fill:#123f6d;fill-opacity:1"
         id="path949" /><path
         d="m 670.91016,-92.89873 v -15.37891 q 10.35351,4.35938 15.43945,5.20704 5.14648,0.84765 9.44531,0.84765 7.75,0 11.56445,-3.51172 3.81446,-3.51172 3.81446,-8.41601 0,-3.75391 -2.0586,-6.78125 -2.05859,-2.9668 -10.41406,-7.68946 l -5.99414,-3.33007 q -12.83594,-7.20508 -17.37695,-13.32032 -4.60156,-6.11523 -4.60156,-14.16797 0,-10.11132 7.6289,-17.3164 7.68945,-7.20508 22.03906,-7.20508 10.7168,0 24.15821,3.08789 v 14.34961 q -13.6836,-5.14648 -21.73633,-5.14648 -6.66016,0 -10.17188,2.96679 -3.45117,2.90625 -3.45117,7.02344 0,3.14844 2.0586,5.87305 1.99804,2.72461 10.35351,7.44726 l 6.41797,3.57227 q 14.71289,8.29492 18.76953,14.41015 3.9961,6.17579 3.9961,13.86524 0,11.01953 -8.35547,18.830077 -8.29493,7.810547 -26.45899,7.810547 -10.77734,0 -25.0664,-3.027344 z"
         style="font-size:124px;fill:#123f6d;fill-opacity:1"
         id="path951" /><path
         d="m 741.87109,-92.89873 v -15.37891 q 10.35352,4.35938 15.43946,5.20704 5.14648,0.84765 9.44531,0.84765 7.75,0 11.56445,-3.51172 3.81446,-3.51172 3.81446,-8.41601 0,-3.75391 -2.0586,-6.78125 -2.05859,-2.9668 -10.41406,-7.68946 l -5.99414,-3.33007 q -12.83594,-7.20508 -17.37695,-13.32032 -4.60157,-6.11523 -4.60157,-14.16797 0,-10.11132 7.62891,-17.3164 7.68945,-7.20508 22.03906,-7.20508 10.7168,0 24.1582,3.08789 v 14.34961 q -13.68359,-5.14648 -21.73632,-5.14648 -6.66016,0 -10.17188,2.96679 -3.45117,2.90625 -3.45117,7.02344 0,3.14844 2.05859,5.87305 1.99805,2.72461 10.35352,7.44726 l 6.41797,3.57227 q 14.71289,8.29492 18.76953,14.41015 3.99609,6.17579 3.99609,13.86524 0,11.01953 -8.35547,18.830077 -8.29492,7.810547 -26.45898,7.810547 -10.77734,0 -25.06641,-3.027344 z"
         style="font-size:124px;fill:#123f6d;fill-opacity:1"
         id="path953" /></g><g
       transform="matrix(0.8,0,0,-0.8,15.9999,110.7319)"
       style="font-style:italic;font-variant:normal;font-weight:normal;font-stretch:normal;font-size:40px;line-height:125%;font-family:'Lucida Sans';-inkscape-font-specification:'Lucida Sans Italic';letter-spacing:0px;word-spacing:0px;fill:#000000;fill-opacity:1;stroke:none;stroke-width:1px;stroke-linecap:butt;stroke-linejoin:miter;stroke-opacity:1"
       id="flowRoot906" /><g
       aria-label="clinical"
       transform="matrix(0.8,0,0,-0.8,-38.4001,67.900538)"
       style="font-style:italic;font-variant:normal;font-weight:normal;font-stretch:normal;font-size:124px;line-height:125%;font-family:'Lucida Sans';-inkscape-font-specification:'Lucida Sans Italic';letter-spacing:0px;word-spacing:0px;fill:#de7d47;fill-opacity:1;stroke:none;stroke-width:1px;stroke-linecap:butt;stroke-linejoin:miter;stroke-opacity:1"
       id="flowRoot914"><path
         d="m -38.585937,54.907911 q -13.683594,5.994141 -24.279297,5.994141 -10.353516,0 -15.923828,-5.994141 -5.509766,-6.054688 -5.509766,-17.134766 0,-11.746093 5.751953,-22.220703 5.8125,-10.4746091 15.378906,-16.8925779 9.566407,-6.4785156 19.738282,-6.4785156 6.902343,0 15.378906,2.1796875 l -1.9375,9.5664062 Q -37.132812,1.142286 -43.671875,1.142286 q -7.326172,0 -13.623047,4.4199219 -6.236328,4.4199218 -10.292969,13.2597651 -3.996093,8.839844 -3.996093,18.22461 0,7.386719 3.511718,10.65625 3.511719,3.208984 8.658204,3.208984 2.542968,0 6.175781,-0.847656 3.693359,-0.847656 7.93164,-2.300781 4.238282,-1.453125 9.082032,-4.238282 z"
         style=""
         id="path956" /><path
         d="M -21.087891,59.38838 -2.0761719,-36.215136 H 9.9121094 L -9.1601563,59.38838 Z"
         style=""
         id="path958" /><path
         d="M 14.755859,59.38838 27.833984,-6.3655265 H 39.822266 L 26.683594,59.38838 Z m 15.439453,-77.681641 2.421875,-11.927734 h 11.927735 l -2.361328,11.927734 z"
         style=""
         id="path960" /><path
         d="M 50.599609,59.38838 63.677734,-6.3655265 H 75.605469 L 70.277344,20.517286 Q 77.421875,8.407911 86.019531,0.29462974 94.677734,-7.8186515 103.57813,-7.8186515 q 4.7832,0 7.81054,2.9667969 3.02735,2.90625 3.02735,9.5058593 0,4.1777344 -0.66602,7.6894533 L 104.36523,59.38838 H 92.4375 l 9.44531,-47.408203 q 0.30274,-1.574219 0.30274,-3.2695316 0,-2.0585938 -1.08985,-3.3300782 -1.08984,-1.2714843 -2.724606,-1.2714843 -4.84375,0 -12.048828,7.6289061 -7.205079,7.628906 -19.132813,24.521484 L 62.527344,59.38838 Z"
         style=""
         id="path962" /><path
         d="m 127.61523,59.38838 13.07813,-65.7539065 h 11.98828 L 139.54297,59.38838 Z m 15.43946,-77.681641 2.42187,-11.927734 h 11.92774 l -2.36133,11.927734 z"
         style=""
         id="path964" /><path
         d="m 208.44531,54.907911 q -13.68359,5.994141 -24.27929,5.994141 -10.35352,0 -15.92383,-5.994141 -5.50977,-6.054688 -5.50977,-17.134766 0,-11.746093 5.75195,-22.220703 5.8125,-10.4746091 15.37891,-16.8925779 9.56641,-6.4785156 19.73828,-6.4785156 6.90235,0 15.37891,2.1796875 l -1.9375,9.5664062 q -7.14453,-2.7851562 -13.6836,-2.7851562 -7.32617,0 -13.62304,4.4199219 -6.23633,4.4199218 -10.29297,13.2597651 -3.99609,8.839844 -3.99609,18.22461 0,7.386719 3.51171,10.65625 3.51172,3.208984 8.65821,3.208984 2.54297,0 6.17578,-0.847656 3.69336,-0.847656 7.93164,-2.300781 4.23828,-1.453125 9.08203,-4.238282 z"
         style=""
         id="path966" /><path
         d="m 265.54102,59.38838 5.38867,-26.882813 q -7.62891,12.835938 -16.77149,20.646485 -9.14258,7.75 -17.07422,7.75 -5.75195,0 -9.20312,-4.904297 -3.39063,-4.904297 -3.39063,-10.958985 0,-12.048828 6.72071,-25.248047 6.78125,-13.1992183 16.58984,-20.40429639 9.80859,-7.26562501 20.94922,-7.26562501 2.11914,0 4.60156,0.3632813 2.48242,0.3632812 5.26758,1.1503906 h 11.98828 L 277.5293,59.38838 Z m 8.17382,-41.111328 3.08789,-15.2578129 q -2.17968,-1.1503906 -4.48046,-1.6953125 -2.30079,-0.60546874 -4.78321,-0.60546874 -6.84179,0 -13.92578,5.69140624 -7.08398,5.6914059 -11.74609,16.5898439 -4.66211,10.898437 -4.66211,19.738281 0,2.785156 1.21094,4.662109 1.27148,1.876954 3.7539,1.876954 8.96094,0 31.54492,-31 z"
         style=""
         id="path968" /><path
         d="m 301.50586,59.38838 19.01172,-95.603516 h 11.98828 L 313.43359,59.38838 Z"
         style=""
         id="path970" /></g></g></svg>
