<?xml version="1.0" encoding="UTF-8" standalone="no"?>
<!-- Created with Inkscape (http://www.inkscape.org/) -->

<svg
   xmlns:dc="http://purl.org/dc/elements/1.1/"
   xmlns:cc="http://creativecommons.org/ns#"
   xmlns:rdf="http://www.w3.org/1999/02/22-rdf-syntax-ns#"
   xmlns:svg="http://www.w3.org/2000/svg"
   xmlns="http://www.w3.org/2000/svg"
   xmlns:sodipodi="http://sodipodi.sourceforge.net/DTD/sodipodi-0.dtd"
   xmlns:inkscape="http://www.inkscape.org/namespaces/inkscape"
   id="svg3336"
   version="1.1"
   inkscape:version="0.92.3 (2405546, 2018-03-11)"
   xml:space="preserve"
   width="1050.7125"
   height="114.44125"
   viewBox="0 0 1050.7125 114.44125"
   sodipodi:docname="openEHR logo specifications.svg"><title
     id="title3382">openEHR logo specifications</title><metadata
     id="metadata3342"><rdf:RDF><cc:Work
         rdf:about=""><dc:format>image/svg+xml</dc:format><dc:type
           rdf:resource="http://purl.org/dc/dcmitype/StillImage" /><dc:title>openEHR logo specifications</dc:title></cc:Work></rdf:RDF></metadata><defs
     id="defs3340"><clipPath
       clipPathUnits="userSpaceOnUse"
       id="clipPath3350"><path
         d="M 0,141.732 H 453.543 V 0 H 0 Z"
         id="path3352"
         inkscape:connector-curvature="0" /></clipPath></defs><sodipodi:namedview
     pagecolor="#ffffff"
     bordercolor="#666666"
     borderopacity="1"
     objecttolerance="10"
     gridtolerance="10"
     guidetolerance="10"
     inkscape:pageopacity="0"
     inkscape:pageshadow="2"
     inkscape:window-width="1920"
     inkscape:window-height="1021"
     id="namedview3338"
     showgrid="false"
     inkscape:zoom="1"
     inkscape:cx="503.69796"
     inkscape:cy="64.393414"
     inkscape:window-x="0"
     inkscape:window-y="600"
     inkscape:window-maximized="1"
     inkscape:current-layer="g3344"
     inkscape:pagecheckerboard="true"
     fit-margin-top="0"
     fit-margin-left="0"
     fit-margin-right="0"
     fit-margin-bottom="0" /><g
     id="g3344"
     inkscape:groupmode="layer"
     inkscape:label="openEHR-MedInfo2015-RGB"
     transform="matrix(1.25,0,0,-1.25,-19.999875,138.41487)"><g
       id="g3358"
       transform="translate(82.2842,58.3389)"
       style="fill:#de7d47;fill-opacity:1" /><g
       id="g871"
       style="fill:#de7d47;fill-opacity:1"><g
         transform="translate(35.6289,44.4717)"
         id="g3354"
         style="fill:#de7d47;fill-opacity:1"><path
           inkscape:connector-curvature="0"
           id="path3356"
           style="fill:#de7d47;fill-opacity:1;fill-rule:nonzero;stroke:none"
           d="m 0,0 c 5.403,0 10.011,2.939 13.817,8.824 3.81,5.881 5.714,12.394 5.714,19.53 0,4.237 -0.805,7.405 -2.417,9.508 -1.611,2.102 -4.028,3.154 -7.252,3.154 -5.175,0 -9.675,-2.917 -13.5,-8.751 -3.825,-5.833 -5.737,-12.352 -5.737,-19.556 0,-4.17 0.806,-7.332 2.417,-9.482 C -5.347,1.074 -3.026,0 0,0 m -2.147,-7.227 c -5.894,0 -10.28,1.709 -13.161,5.131 -2.88,3.422 -4.321,7.672 -4.321,12.756 0,6.287 1.505,12.511 4.517,18.669 3.009,6.157 6.787,10.848 11.328,14.074 4.541,3.227 9.855,4.84 15.942,4.84 6.12,0 10.588,-1.72 13.404,-5.156 2.815,-3.439 4.223,-7.666 4.223,-12.684 0,-6.254 -1.489,-12.438 -4.468,-18.546 C 22.339,5.748 18.604,1.039 14.11,-2.268 9.619,-5.574 4.199,-7.227 -2.147,-7.227" /></g><path
         inkscape:connector-curvature="0"
         id="path3360"
         style="fill:#de7d47;fill-opacity:1;fill-rule:nonzero;stroke:none"
         d="m 0,0 -2.459,-12.354 c 2.359,-1.205 4.832,-1.806 7.418,-1.806 3.621,0 7.33,1.531 11.129,4.594 3.798,3.064 6.941,7.529 9.432,13.396 2.488,5.868 3.732,11.181 3.732,15.939 0,1.531 -0.338,2.793 -1.017,3.789 -0.677,0.994 -1.663,1.49 -2.954,1.49 C 20.47,25.048 12.043,16.7 0,0 M -17.448,-39.16 -3.086,33.154 H 6.57 L 2.281,11.476 c 4.049,6.914 8.529,12.46 13.437,16.635 4.909,4.175 9.485,6.265 13.729,6.265 3.045,0 5.484,-1.297 7.315,-3.887 1.83,-2.59 2.744,-5.578 2.744,-8.968 0,-6.417 -1.789,-13.163 -5.371,-20.232 -3.581,-7.07 -8.006,-12.568 -13.272,-16.494 -5.267,-3.926 -10.883,-5.889 -16.845,-5.889 -2.237,0 -4.895,0.407 -7.973,1.221 L -7.793,-39.16 Z"
         transform="translate(82.2842,58.3389)" /><g
         transform="translate(137.3721,65.2734)"
         id="g3362"
         style="fill:#de7d47;fill-opacity:1"><path
           inkscape:connector-curvature="0"
           id="path3364"
           style="fill:#de7d47;fill-opacity:1;fill-rule:nonzero;stroke:none"
           d="m 0,0 c 5.826,0.553 10.293,1.496 13.402,2.832 3.11,1.334 5.567,3.115 7.373,5.346 1.807,2.23 2.71,4.369 2.71,6.421 0,1.301 -0.528,2.514 -1.587,3.637 -1.058,1.123 -2.417,1.684 -4.077,1.684 -2.245,0 -4.491,-0.715 -6.737,-2.148 C 9.26,16.633 7.584,15.135 6.055,13.28 4.816,11.815 3.727,10.211 2.782,8.471 1.838,6.729 0.91,3.906 0,0 m 30.664,-21.485 c -8.398,-4.364 -16.31,-6.543 -23.73,-6.543 -5.568,0 -9.872,1.629 -12.915,4.886 -3.044,3.258 -4.566,7.688 -4.566,13.293 0,6.092 1.4,11.992 4.198,17.691 2.8,5.703 6.601,10.393 11.403,14.076 4.8,3.682 10.016,5.522 15.649,5.522 3.905,0 6.901,-0.928 8.984,-2.787 2.084,-1.858 3.126,-4.466 3.126,-7.823 0,-4.011 -1.278,-7.701 -3.834,-11.076 C 26.424,2.381 22.614,-0.479 17.554,-2.827 12.491,-5.175 6.348,-6.642 -0.879,-7.228 c 0,-4.525 0.983,-7.845 2.953,-9.96 1.969,-2.118 4.533,-3.174 7.692,-3.174 2.505,0 5.867,0.658 10.083,1.976 4.214,1.319 8.438,3.377 12.671,6.178 z" /></g><g
         transform="translate(175.3408,38.4658)"
         id="g3366"
         style="fill:#de7d47;fill-opacity:1"><path
           inkscape:connector-curvature="0"
           id="path3368"
           style="fill:#de7d47;fill-opacity:1;fill-rule:nonzero;stroke:none"
           d="m 0,0 10.533,53.027 h 9.655 L 15.895,31.349 c 3.837,6.523 8.076,11.969 12.71,16.341 4.637,4.373 9.346,6.559 14.129,6.559 2.569,0 4.668,-0.793 6.295,-2.377 1.627,-1.584 2.44,-4.154 2.44,-7.713 0,-2.254 -0.178,-4.326 -0.537,-6.221 L 43.396,0 h -9.657 l 7.593,38.274 c 0.164,0.848 0.246,1.727 0.246,2.641 0,1.106 -0.293,2.002 -0.879,2.688 -0.586,0.683 -1.318,1.025 -2.197,1.025 -2.603,0 -5.84,-2.053 -9.711,-6.162 C 24.918,34.355 19.777,27.751 13.369,18.652 L 9.656,0 Z" /></g></g><g
       id="g3374"
       transform="translate(302.9741,38.4658)" /><g
       id="g879"
       style="fill:#123f6d;fill-opacity:1"><g
         transform="translate(242.915,38.4658)"
         id="g3370"
         style="fill:#123f6d;fill-opacity:1"><path
           inkscape:connector-curvature="0"
           id="path3372"
           style="fill:#123f6d;fill-opacity:1;fill-rule:nonzero;stroke:none"
           d="M 0,0 V 72.266 H 46.29 V 62.305 H 15.04 V 42.188 H 40.87 V 32.227 H 15.04 V 10.254 H 48.584 V 0 Z" /></g><path
         inkscape:connector-curvature="0"
         id="path3376"
         style="fill:#123f6d;fill-opacity:1;fill-rule:nonzero;stroke:none"
         d="M 0,0 V 72.266 H 15.039 V 42.919 H 44.922 V 72.266 H 59.961 V 0 H 44.922 V 32.958 H 15.039 V 0 Z"
         transform="translate(302.9741,38.4658)" /><g
         transform="translate(393.1616,77.9189)"
         id="g3378"
         style="fill:#123f6d;fill-opacity:1"><path
           inkscape:connector-curvature="0"
           id="path3380"
           style="fill:#123f6d;fill-opacity:1;fill-rule:nonzero;stroke:none"
           d="m 0,0 h 3.461 c 6.207,0 10.495,1.351 12.862,4.054 2.367,2.7 3.551,5.759 3.551,9.177 0,2.963 -0.963,5.315 -2.889,7.057 -1.926,1.74 -5.842,2.611 -11.748,2.611 H 0 Z m -14.16,-39.453 v 72.266 h 27.051 c 5.533,0 9.748,-0.692 12.647,-2.076 2.896,-1.383 5.183,-3.483 6.859,-6.299 1.676,-2.815 2.516,-5.998 2.516,-9.544 0,-4.233 -1.221,-8.229 -3.663,-11.989 -2.441,-3.759 -5.892,-6.633 -10.351,-8.618 l 23.656,-33.74 H 26.239 L 8.268,-9.911 H 0 v -29.542 z" /></g></g><flowRoot
       xml:space="preserve"
       id="flowRoot834"
       style="font-style:normal;font-weight:normal;font-size:40px;line-height:125%;font-family:Sans;letter-spacing:100px;word-spacing:0px;fill:#000000;fill-opacity:1;stroke:none;stroke-width:1px;stroke-linecap:butt;stroke-linejoin:miter;stroke-opacity:1"
       transform="matrix(0.8,0,0,-0.8,15.9999,110.7319)"><flowRegion
         id="flowRegion836"><rect
           id="rect838"
           width="716"
           height="122"
           x="537"
           y="27.441254" /></flowRegion><flowPara
         id="flowPara840"></flowPara></flowRoot><g
       aria-label="specifications"
       transform="matrix(0.8,0,0,-0.8,-7.6801,117.96924)"
       style="font-style:italic;font-variant:normal;font-weight:normal;font-stretch:normal;font-size:80px;line-height:125%;font-family:'Lucida Sans';-inkscape-font-specification:'Lucida Sans Italic';letter-spacing:0px;word-spacing:0px;fill:#de7d47;fill-opacity:1;stroke:none;stroke-width:1px;stroke-linecap:butt;stroke-linejoin:miter;stroke-opacity:1"
       id="flowRoot842"><path
         d="m 561.09375,96.367377 1.28906,-6.484375 q 8.00781,3.945313 13.35938,3.945313 3.24218,0 5.07812,-1.523438 1.83594,-1.523437 1.83594,-3.945312 0,-1.523438 -0.74219,-2.734375 -0.74219,-1.25 -2.85156,-3.4375 l -3.55469,-3.632813 q -4.49219,-4.609375 -5.66406,-6.992187 -1.17188,-2.421875 -1.17188,-4.726563 0,-4.0625 3.59375,-7.8125 3.59375,-3.75 11.01563,-3.75 2.22656,0 4.57031,0.351563 2.38281,0.3125 7.30469,2.109375 l -1.28906,6.484375 q -4.80469,-2.265625 -6.91407,-2.695313 -2.10937,-0.46875 -4.0625,-0.46875 -3.35937,0 -4.96093,1.484375 -1.5625,1.445313 -1.5625,3.476563 0,1.328125 0.70312,2.578125 0.70313,1.25 3.51563,4.101562 l 3.86718,3.90625 q 3.20313,3.242188 4.53125,5.742188 1.36719,2.5 1.36719,5.429687 0,5.273438 -4.10156,8.554688 -4.10156,3.28125 -11.13281,3.28125 -2.03125,0 -4.25782,-0.351563 -2.1875,-0.3125 -4.21875,-0.859375 -2.03125,-0.585937 -5.54687,-2.03125 z"
         style="font-style:italic;font-variant:normal;font-weight:normal;font-stretch:normal;font-size:80px;font-family:'Lucida Sans';-inkscape-font-specification:'Lucida Sans Italic';font-variant-ligatures:normal;font-variant-caps:normal;font-variant-numeric:normal;font-feature-settings:normal;text-align:start;letter-spacing:0px;writing-mode:lr-tb;text-anchor:start;fill:#de7d47;fill-opacity:1"
         id="path850" /><path
         d="m 598.71094,114.06269 11.52343,-57.851563 h 7.69532 l -3.4375,17.34375 q 4.88281,-8.28125 10.78125,-13.28125 5.9375,-5 11.05468,-5 3.67188,0 5.85938,3.125 2.22656,3.085938 2.22656,7.148438 0,7.695312 -4.33594,16.171875 -4.29687,8.476562 -10.66406,13.203125 -6.32812,4.6875 -13.51562,4.6875 -2.69532,0 -6.40625,-0.976563 l -3.08594,15.429688 z m 13.94531,-31.328125 -1.95313,9.882812 q 2.85157,1.445313 5.97657,1.445313 4.375,0 8.94531,-3.671875 4.60937,-3.671875 7.61719,-10.703125 3.00781,-7.03125 3.00781,-12.734375 0,-1.835938 -0.82031,-3.007813 -0.82032,-1.210937 -2.38282,-1.210937 -5.82031,0 -20.39062,20 z"
         style="font-style:italic;font-variant:normal;font-weight:normal;font-stretch:normal;font-size:80px;font-family:'Lucida Sans';-inkscape-font-specification:'Lucida Sans Italic';font-variant-ligatures:normal;font-variant-caps:normal;font-variant-numeric:normal;font-feature-settings:normal;text-align:start;letter-spacing:0px;writing-mode:lr-tb;text-anchor:start;fill:#de7d47;fill-opacity:1"
         id="path852" /><path
         d="m 683.00781,94.37519 q -10.07812,5.234375 -18.98437,5.234375 -6.67969,0 -10.35157,-3.90625 -3.63281,-3.90625 -3.63281,-10.625 0,-7.304688 3.35938,-14.140625 3.35937,-6.835938 9.10156,-11.25 5.78125,-4.414063 12.53906,-4.414063 4.6875,0 7.1875,2.226563 2.5,2.226562 2.5,6.25 0,4.804687 -3.08594,8.867187 -3.04687,4.023438 -9.14062,6.835938 -6.05469,2.8125 -14.72656,3.515625 0,5.429687 2.34375,7.96875 2.38281,2.539062 6.17187,2.539062 3.00781,0 8.04688,-1.5625 5.07812,-1.601562 10.15625,-4.960937 z M 658.47656,77.226752 q 6.99219,-0.664062 10.70313,-2.265625 3.75,-1.601562 5.89843,-4.257812 2.1875,-2.695313 2.1875,-5.15625 0,-1.5625 -1.28906,-2.890625 -1.25,-1.367188 -3.24219,-1.367188 -2.69531,0 -5.39062,1.71875 -2.1875,1.367188 -4.02344,3.59375 -1.48437,1.757813 -2.61719,3.867188 -1.13281,2.070312 -2.22656,6.757812 z"
         style="font-style:italic;font-variant:normal;font-weight:normal;font-stretch:normal;font-size:80px;font-family:'Lucida Sans';-inkscape-font-specification:'Lucida Sans Italic';font-variant-ligatures:normal;font-variant-caps:normal;font-variant-numeric:normal;font-feature-settings:normal;text-align:start;letter-spacing:0px;writing-mode:lr-tb;text-anchor:start;fill:#de7d47;fill-opacity:1"
         id="path854" /><path
         d="m 721.875,95.742377 q -8.82813,3.867188 -15.66406,3.867188 -6.67969,0 -10.27344,-3.867188 -3.55469,-3.90625 -3.55469,-11.054687 0,-7.578125 3.71094,-14.335938 3.75,-6.757812 9.92187,-10.898437 6.17188,-4.179688 12.73438,-4.179688 4.45312,0 9.92187,1.40625 l -1.25,6.171875 q -4.60937,-1.796875 -8.82812,-1.796875 -4.72656,0 -8.78906,2.851563 -4.02344,2.851562 -6.64063,8.554687 -2.57812,5.703125 -2.57812,11.757813 0,4.765625 2.26562,6.875 2.26563,2.070312 5.58594,2.070312 1.64062,0 3.98437,-0.546875 2.38282,-0.546875 5.11719,-1.484375 2.73438,-0.9375 5.85938,-2.734375 z"
         style="font-style:italic;font-variant:normal;font-weight:normal;font-stretch:normal;font-size:80px;font-family:'Lucida Sans';-inkscape-font-specification:'Lucida Sans Italic';font-variant-ligatures:normal;font-variant-caps:normal;font-variant-numeric:normal;font-feature-settings:normal;text-align:start;letter-spacing:0px;writing-mode:lr-tb;text-anchor:start;fill:#de7d47;fill-opacity:1"
         id="path856" /><path
         d="m 733.16406,98.633002 8.4375,-42.421875 h 7.73438 l -8.47657,42.421875 z m 9.96094,-50.117187 1.5625,-7.695313 h 7.69531 l -1.52344,7.695313 z"
         style="font-style:italic;font-variant:normal;font-weight:normal;font-stretch:normal;font-size:80px;font-family:'Lucida Sans';-inkscape-font-specification:'Lucida Sans Italic';font-variant-ligatures:normal;font-variant-caps:normal;font-variant-numeric:normal;font-feature-settings:normal;text-align:start;letter-spacing:0px;writing-mode:lr-tb;text-anchor:start;fill:#de7d47;fill-opacity:1"
         id="path858" /><path
         d="m 754.21875,114.06269 10.35156,-52.070313 h -6.75781 l 1.17187,-5.78125 h 6.75782 l 0.35156,-1.914062 q 1.75781,-8.710938 8.55469,-14.296875 2.53906,-2.070313 5.19531,-3.046875 2.69531,-0.976563 6.32812,-0.976563 3.4375,0 7.46094,1.171875 l -1.25,6.132813 q -3.32031,-1.523438 -6.99219,-1.523438 -4.25781,0 -7.30468,3.242188 -3.04688,3.242187 -4.45313,10.273437 l -0.19531,0.9375 H 785 l -1.17188,5.78125 h -11.5625 l -10.35156,52.070313 z"
         style="font-style:italic;font-variant:normal;font-weight:normal;font-stretch:normal;font-size:80px;font-family:'Lucida Sans';-inkscape-font-specification:'Lucida Sans Italic';font-variant-ligatures:normal;font-variant-caps:normal;font-variant-numeric:normal;font-feature-settings:normal;text-align:start;letter-spacing:0px;writing-mode:lr-tb;text-anchor:start;fill:#de7d47;fill-opacity:1"
         id="path860" /><path
         d="m 786.91406,98.633002 8.4375,-42.421875 h 7.73438 l -8.47657,42.421875 z m 9.96094,-50.117187 1.5625,-7.695313 h 7.69531 l -1.52344,7.695313 z"
         style="font-style:italic;font-variant:normal;font-weight:normal;font-stretch:normal;font-size:80px;font-family:'Lucida Sans';-inkscape-font-specification:'Lucida Sans Italic';font-variant-ligatures:normal;font-variant-caps:normal;font-variant-numeric:normal;font-feature-settings:normal;text-align:start;letter-spacing:0px;writing-mode:lr-tb;text-anchor:start;fill:#de7d47;fill-opacity:1"
         id="path862" /><path
         d="m 839.0625,95.742377 q -8.82813,3.867188 -15.66406,3.867188 -6.67969,0 -10.27344,-3.867188 -3.55469,-3.90625 -3.55469,-11.054687 0,-7.578125 3.71094,-14.335938 3.75,-6.757812 9.92187,-10.898437 6.17188,-4.179688 12.73438,-4.179688 4.45312,0 9.92187,1.40625 l -1.25,6.171875 Q 840,61.054877 835.78125,61.054877 q -4.72656,0 -8.78906,2.851563 -4.02344,2.851562 -6.64063,8.554687 -2.57812,5.703125 -2.57812,11.757813 0,4.765625 2.26562,6.875 2.26563,2.070312 5.58594,2.070312 1.64062,0 3.98437,-0.546875 2.38282,-0.546875 5.11719,-1.484375 2.73438,-0.9375 5.85938,-2.734375 z"
         style="font-style:italic;font-variant:normal;font-weight:normal;font-stretch:normal;font-size:80px;font-family:'Lucida Sans';-inkscape-font-specification:'Lucida Sans Italic';font-variant-ligatures:normal;font-variant-caps:normal;font-variant-numeric:normal;font-feature-settings:normal;text-align:start;letter-spacing:0px;writing-mode:lr-tb;text-anchor:start;fill:#de7d47;fill-opacity:1"
         id="path864" /><path
         d="m 875.89844,98.633002 3.47656,-17.34375 q -4.92188,8.28125 -10.82031,13.320313 -5.89844,5 -11.01563,5 -3.71094,0 -5.9375,-3.164063 -2.1875,-3.164062 -2.1875,-7.070312 0,-7.773438 4.33594,-16.289063 4.375,-8.515625 10.70312,-13.164062 6.32813,-4.6875 13.51563,-4.6875 1.36719,0 2.96875,0.234375 1.60156,0.234375 3.39844,0.742187 h 7.73437 l -8.4375,42.421875 z m 5.27343,-26.523437 1.99219,-9.84375 q -1.40625,-0.742188 -2.89062,-1.09375 -1.48438,-0.390625 -3.08594,-0.390625 -4.41406,0 -8.98438,3.671875 -4.57031,3.671875 -7.57812,10.703125 -3.00781,7.03125 -3.00781,12.734375 0,1.796875 0.78125,3.007812 0.82031,1.210938 2.42187,1.210938 5.78125,0 20.35156,-20 z"
         style="font-style:italic;font-variant:normal;font-weight:normal;font-stretch:normal;font-size:80px;font-family:'Lucida Sans';-inkscape-font-specification:'Lucida Sans Italic';font-variant-ligatures:normal;font-variant-caps:normal;font-variant-numeric:normal;font-feature-settings:normal;text-align:start;letter-spacing:0px;writing-mode:lr-tb;text-anchor:start;fill:#de7d47;fill-opacity:1"
         id="path866" /><path
         d="m 917.89062,98.828315 q -2.61718,0.78125 -4.84375,0.78125 -5.19531,0 -8.00781,-2.539063 -2.77344,-2.539062 -2.77344,-6.445312 0,-2.5 0.70313,-6.132813 l 4.49219,-22.5 h -6.75782 l 1.13282,-5.78125 h 6.75781 l 1.52344,-7.695312 7.92968,-0.976563 -1.71875,8.671875 h 10.11719 l -1.17187,5.78125 h -10.11719 l -4.60938,23.203125 q -0.66406,3.28125 -0.66406,4.335938 0,1.679687 1.05469,3.007812 1.09375,1.289063 3.82812,1.289063 1.83594,0 4.25782,-0.78125 z"
         style="font-style:italic;font-variant:normal;font-weight:normal;font-stretch:normal;font-size:80px;font-family:'Lucida Sans';-inkscape-font-specification:'Lucida Sans Italic';font-variant-ligatures:normal;font-variant-caps:normal;font-variant-numeric:normal;font-feature-settings:normal;text-align:start;letter-spacing:0px;writing-mode:lr-tb;text-anchor:start;fill:#de7d47;fill-opacity:1"
         id="path868" /><path
         d="m 929.72656,98.633002 8.4375,-42.421875 h 7.73438 l -8.47657,42.421875 z m 9.96094,-50.117187 1.5625,-7.695313 h 7.69531 l -1.52344,7.695313 z"
         style="font-style:italic;font-variant:normal;font-weight:normal;font-stretch:normal;font-size:80px;font-family:'Lucida Sans';-inkscape-font-specification:'Lucida Sans Italic';font-variant-ligatures:normal;font-variant-caps:normal;font-variant-numeric:normal;font-feature-settings:normal;text-align:start;letter-spacing:0px;writing-mode:lr-tb;text-anchor:start;fill:#de7d47;fill-opacity:1"
         id="path870" /><path
         d="m 966.17187,99.609565 q -7.07031,0 -10.54687,-4.101563 -3.4375,-4.101562 -3.4375,-10.195312 0,-7.539063 3.59375,-14.921875 3.63281,-7.382813 9.0625,-11.25 5.46875,-3.867188 12.77344,-3.867188 7.34375,0 10.70312,4.140625 3.39844,4.101563 3.39844,10.117188 0,7.5 -3.59375,14.84375 -3.55469,7.304687 -8.94531,11.289062 -5.39063,3.945313 -13.00782,3.945313 z m 1.71875,-5.78125 q 6.48438,0 11.05469,-7.03125 4.57031,-7.070313 4.57031,-15.625 0,-5.078125 -1.95312,-7.578125 -1.91406,-2.539063 -5.78125,-2.539063 -6.21094,0 -10.82031,6.992188 -4.57032,6.992187 -4.57032,15.625 0,5 1.91407,7.578125 1.95312,2.578125 5.58593,2.578125 z"
         style="font-style:italic;font-variant:normal;font-weight:normal;font-stretch:normal;font-size:80px;font-family:'Lucida Sans';-inkscape-font-specification:'Lucida Sans Italic';font-variant-ligatures:normal;font-variant-caps:normal;font-variant-numeric:normal;font-feature-settings:normal;text-align:start;letter-spacing:0px;writing-mode:lr-tb;text-anchor:start;fill:#de7d47;fill-opacity:1"
         id="path872" /><path
         d="m 998.16406,98.633002 8.43754,-42.421875 h 7.6953 l -3.4375,17.34375 q 4.6093,-7.8125 10.1562,-13.046875 5.586,-5.234375 11.3282,-5.234375 3.0859,0 5.039,1.914063 1.9531,1.875 1.9531,6.132812 0,2.695313 -0.4296,4.960938 l -6.0547,30.351562 h -7.6953 l 6.0937,-30.585937 q 0.1953,-1.015625 0.1953,-2.109375 0,-1.328125 -0.7031,-2.148438 -0.7031,-0.820312 -1.7578,-0.820312 -3.125,0 -7.7735,4.921875 -4.6484,4.921875 -12.3437,15.820312 l -3.0078,14.921875 z"
         style="font-style:italic;font-variant:normal;font-weight:normal;font-stretch:normal;font-size:80px;font-family:'Lucida Sans';-inkscape-font-specification:'Lucida Sans Italic';font-variant-ligatures:normal;font-variant-caps:normal;font-variant-numeric:normal;font-feature-settings:normal;text-align:start;letter-spacing:0px;writing-mode:lr-tb;text-anchor:start;fill:#de7d47;fill-opacity:1"
         id="path874" /><path
         d="m 1046.25,96.367377 1.2891,-6.484375 q 8.0078,3.945313 13.3593,3.945313 3.2422,0 5.0782,-1.523438 1.8359,-1.523437 1.8359,-3.945312 0,-1.523438 -0.7422,-2.734375 -0.7422,-1.25 -2.8515,-3.4375 l -3.5547,-3.632813 q -4.4922,-4.609375 -5.6641,-6.992187 -1.1719,-2.421875 -1.1719,-4.726563 0,-4.0625 3.5938,-7.8125 3.5937,-3.75 11.0156,-3.75 2.2266,0 4.5703,0.351563 2.3828,0.3125 7.3047,2.109375 l -1.2891,6.484375 q -4.8046,-2.265625 -6.914,-2.695313 -2.1094,-0.46875 -4.0625,-0.46875 -3.3594,0 -4.961,1.484375 -1.5625,1.445313 -1.5625,3.476563 0,1.328125 0.7032,2.578125 0.7031,1.25 3.5156,4.101562 l 3.8672,3.90625 q 3.2031,3.242188 4.5312,5.742188 1.3672,2.5 1.3672,5.429687 0,5.273438 -4.1015,8.554688 -4.1016,3.28125 -11.1329,3.28125 -2.0312,0 -4.2578,-0.351563 -2.1875,-0.3125 -4.2187,-0.859375 -2.0313,-0.585937 -5.5469,-2.03125 z"
         style="font-style:italic;font-variant:normal;font-weight:normal;font-stretch:normal;font-size:80px;font-family:'Lucida Sans';-inkscape-font-specification:'Lucida Sans Italic';font-variant-ligatures:normal;font-variant-caps:normal;font-variant-numeric:normal;font-feature-settings:normal;text-align:start;letter-spacing:0px;writing-mode:lr-tb;text-anchor:start;fill:#de7d47;fill-opacity:1"
         id="path876" /></g></g></svg>
